<svg width="29" height="29" viewBox="0 0 29 29" fill="none" xmlns="http://www.w3.org/2000/svg">
<path fill-rule="evenodd" clip-rule="evenodd" d="M24.4192 17.7399V8.31323C24.4192 5.89699 22.4605 3.93823 20.0442 3.93823H9.82422C7.40797 3.93823 5.44922 5.89699 5.44922 8.31323V20.6099C5.44922 22.6782 7.12591 24.3549 9.19422 24.3549H23.5442C24.0275 24.3549 24.4192 23.9632 24.4192 23.4799C24.4192 22.9967 24.0275 22.6049 23.5442 22.6049H9.19422C8.09241 22.6049 7.19922 21.7117 7.19922 20.6099C7.19922 19.5081 8.09241 18.6149 9.19422 18.6149H23.5442C24.0275 18.6149 24.4192 18.2231 24.4192 17.7399ZM7.19922 17.4482V8.31323C7.19922 6.86349 8.37447 5.68823 9.82422 5.68823H20.0442C21.494 5.68823 22.6692 6.86349 22.6692 8.31323V16.8649H9.19422C8.48741 16.8666 7.79559 17.0689 7.19922 17.4482Z" fill="currentColor"/>
<path d="M8.31922 20.6099C8.31922 20.1267 8.71097 19.7349 9.19422 19.7349H22.1092C22.5925 19.7349 22.9842 20.1267 22.9842 20.6099C22.9842 21.0931 22.5925 21.4849 22.1092 21.4849H9.19422C8.71097 21.4849 8.31922 21.0931 8.31922 20.6099Z" fill="currentColor"/>
</svg>
