<svg width="29" height="29" viewBox="0 0 29 29" fill="none" xmlns="http://www.w3.org/2000/svg">
<path fill-rule="evenodd" clip-rule="evenodd" d="M18.5377 9.64268C18.4312 9.63016 18.3236 9.63016 18.2172 9.64268L12.4228 11.1426C11.9615 11.2569 11.6013 11.6171 11.4869 12.0784L10.0255 17.9241C9.92912 18.3132 10.0203 18.725 10.272 19.037C10.5236 19.3491 10.9067 19.5255 11.3075 19.5137C11.4139 19.5262 11.5215 19.5262 11.6279 19.5137L17.4865 18.0138C17.9477 17.8995 18.3079 17.5393 18.4223 17.078L19.8837 11.2323C19.9801 10.8432 19.8889 10.4314 19.6372 10.1193C19.3856 9.80729 19.0025 9.63092 18.6017 9.64268H18.5377ZM17.1275 12.322L16.2301 15.9371L12.615 16.8344L13.5124 13.2193L17.1275 12.322Z" fill="currentColor"/>
<path fill-rule="evenodd" clip-rule="evenodd" d="M17.6403 1.60486H12.2048C6.54081 1.60486 1.94922 6.19645 1.94922 11.8605V17.2959C1.94922 22.9599 6.54081 27.5515 12.2048 27.5515H17.6403C23.3043 27.5515 27.8959 22.9599 27.8959 17.2959V11.8605C27.8959 6.19645 23.3043 1.60486 17.6403 1.60486ZM12.2048 25.6286C7.60574 25.6215 3.8792 21.895 3.87214 17.2959V11.8605C3.8792 7.26138 7.60574 3.53484 12.2048 3.52778H17.6403C22.2394 3.53484 25.9659 7.26138 25.973 11.8605V17.2959C25.9659 21.895 22.2394 25.6215 17.6403 25.6286H12.2048Z" fill="currentColor"/>
</svg>
