<svg width="27" height="25" viewBox="0 0 27 25" fill="currentColor" xmlns="http://www.w3.org/2000/svg">
<g clip-path="url(#clip0_193_14657)">
<path d="M15.4191 1.80912C15.4191 1.34505 15.2159 0.909116 14.8638 0.627866C14.5118 0.346616 14.0559 0.243491 13.6225 0.355991L5.50204 2.46537C4.54058 2.7138 3.8635 3.6138 3.8635 4.64505V21.3091H2.41905C1.6201 21.3091 0.974609 21.9794 0.974609 22.8091C0.974609 23.6388 1.6201 24.3091 2.41905 24.3091H5.30794H13.9746H15.4191V22.8091V1.80912ZM12.5302 12.3091C12.5302 13.1388 12.0472 13.8091 11.4468 13.8091C10.8465 13.8091 10.3635 13.1388 10.3635 12.3091C10.3635 11.4794 10.8465 10.8091 11.4468 10.8091C12.0472 10.8091 12.5302 11.4794 12.5302 12.3091ZM16.8635 6.30912H21.1968V22.8091C21.1968 23.6388 21.8423 24.3091 22.6413 24.3091H25.5302C26.3291 24.3091 26.9746 23.6388 26.9746 22.8091C26.9746 21.9794 26.3291 21.3091 25.5302 21.3091H24.0857V6.30912C24.0857 4.65443 22.7902 3.30912 21.1968 3.30912H16.8635V6.30912Z" fill="currentColor"/>
</g>
<defs>
<clipPath id="clip0_193_14657">
<rect width="26" height="24" fill="white" transform="translate(0.974609 0.309082)"/>
</clipPath>
</defs>
</svg>
