<svg width="29" height="29" viewBox="0 0 29 29" fill="none" xmlns="http://www.w3.org/2000/svg">
<path fill-rule="evenodd" clip-rule="evenodd" d="M24.4555 8.6055L17.9689 3.8105C16.0714 2.42531 13.4963 2.42531 11.5989 3.8105L5.12385 8.6055C3.8702 9.50866 3.12431 10.9571 3.11719 12.5022V21.1705C3.18722 23.9626 5.50494 26.1707 8.29719 26.1055H21.2705C24.0628 26.1707 26.3805 23.9626 26.4505 21.1705V12.4905C26.4405 10.9521 25.7 9.51 24.4555 8.6055ZM24.7005 21.1705C24.6309 22.9963 23.0965 24.4212 21.2705 24.3555H8.29719C6.47366 24.4147 4.94305 22.9934 4.86719 21.1705V12.5022C4.87341 11.5104 5.35505 10.5818 6.16219 10.0055L12.6372 5.22217C13.916 4.28834 15.6517 4.28834 16.9305 5.22217L23.4055 10.0172C24.212 10.5835 24.6945 11.5051 24.7005 12.4905V21.1705ZM9.53385 18.8138H20.0339C20.5171 18.8138 20.9089 19.2056 20.9089 19.6888C20.9089 20.1721 20.5171 20.5638 20.0339 20.5638H9.53385C9.0506 20.5638 8.65885 20.1721 8.65885 19.6888C8.65885 19.2056 9.0506 18.8138 9.53385 18.8138Z" fill="currentColor"/>
</svg>
