<svg width="23" height="21" viewBox="0 0 23 21" fill="none" xmlns="http://www.w3.org/2000/svg">
<g clip-path="url(#clip0_22_2168)">
<path d="M22.4922 10.9019C22.4922 11.605 21.9062 12.1558 21.2422 12.1558H19.9922L20.0195 18.4136C20.0195 18.519 20.0117 18.6245 20 18.73V19.3589C20 20.2222 19.3008 20.9214 18.4375 20.9214H17.8125C17.7695 20.9214 17.7266 20.9214 17.6836 20.9175C17.6289 20.9214 17.5742 20.9214 17.5195 20.9214H16.25H15.3125C14.4492 20.9214 13.75 20.2222 13.75 19.3589V18.4214V15.9214C13.75 15.23 13.1914 14.6714 12.5 14.6714H10C9.30859 14.6714 8.75 15.23 8.75 15.9214V18.4214V19.3589C8.75 20.2222 8.05078 20.9214 7.1875 20.9214H6.25H5.00391C4.94531 20.9214 4.88672 20.9175 4.82812 20.9136C4.78125 20.9175 4.73438 20.9214 4.6875 20.9214H4.0625C3.19922 20.9214 2.5 20.2222 2.5 19.3589V14.9839C2.5 14.9487 2.5 14.9097 2.50391 14.8745V12.1558H1.25C0.546875 12.1558 0 11.6089 0 10.9019C0 10.5503 0.117188 10.2378 0.390625 9.96436L10.4062 1.23389C10.6797 0.960449 10.9922 0.921387 11.2656 0.921387C11.5391 0.921387 11.8516 0.999512 12.0859 1.19482L22.0625 9.96436C22.375 10.2378 22.5312 10.5503 22.4922 10.9019Z" fill="currentColor"/>
</g>
<defs>
<clipPath id="clip0_22_2168">
<rect width="22.5" height="20" fill="white" transform="translate(0 0.921387)"/>
</clipPath>
</defs>
</svg>
