<svg width="28" height="29" viewBox="0 0 28 29" fill="none" xmlns="http://www.w3.org/2000/svg">
<path fill-rule="evenodd" clip-rule="evenodd" d="M20.0493 14.6225L24.4466 19.1663C24.7424 19.5161 24.8454 19.9975 24.72 20.4435L23.9118 23.3541C23.7873 23.7944 23.4568 24.1406 23.0323 24.2751L20.1444 25.1716C19.6841 25.3006 19.1921 25.17 18.849 24.8277L14.4398 20.2716C13.8406 19.6529 13.0289 19.3042 12.1818 19.3014C11.774 19.3033 11.3704 19.3867 10.9933 19.547C10.6147 19.7008 10.2116 19.78 9.80484 19.7804C8.95668 19.7831 8.14304 19.4335 7.54678 18.8102L3.98141 15.126C3.17147 14.292 2.85426 13.0745 3.14949 11.933L4.53998 6.61547C4.82256 5.46162 5.68599 4.55532 6.79805 4.24529L11.9916 2.88213C12.2633 2.80918 12.5428 2.77204 12.8235 2.77161C13.6706 2.77433 14.4823 3.12307 15.0816 3.74178L18.6469 7.42599C19.5604 8.37016 19.8367 9.78833 19.3481 11.0242C18.8595 12.2601 19.1359 13.6783 20.0493 14.6225ZM19.9543 23.3663L22.3312 22.6418L22.9848 20.2348L18.7896 15.8997C17.3619 14.4332 16.9345 12.2201 17.7081 10.2997C17.9122 9.74632 17.7818 9.12062 17.3753 8.70319L13.8099 5.01898C13.5477 4.74117 13.1872 4.58594 12.8116 4.58915C12.6895 4.57049 12.5654 4.57049 12.4432 4.58915L7.26155 6.02599C6.77461 6.16136 6.39425 6.5544 6.26325 7.05757L4.87276 12.4611C4.74234 12.966 4.88281 13.5045 5.24118 13.8734L8.80654 17.5576C9.06876 17.8354 9.42931 17.9906 9.80485 17.9874C9.98716 17.9856 10.1679 17.9524 10.3396 17.8892C10.9268 17.6353 11.5572 17.5058 12.1936 17.5085C13.5309 17.493 14.8172 18.0379 15.759 19.019L19.9543 23.3663Z" fill="currentColor"/>
<path d="M12.4076 8.5681L8.72335 12.3751C8.37578 12.7347 8.37578 13.3173 8.72335 13.6769C9.07135 14.036 9.63511 14.036 9.98311 13.6769L13.6673 9.86985C13.8372 9.6988 13.933 9.46408 13.933 9.21898C13.933 8.97387 13.8372 8.73915 13.6673 8.5681C13.3193 8.20894 12.7556 8.20894 12.4076 8.5681Z" fill="currentColor"/>
</svg>
