<svg width="175" height="54" viewBox="0 0 175 54" fill="none" xmlns="http://www.w3.org/2000/svg">
<path d="M12.4241 41.3C14.5441 41.3 16.4741 40.78 18.2141 39.75C19.9541 38.72 21.3041 37.35 22.2641 35.64L17.3841 32.85C16.9441 33.75 16.2841 34.45 15.4041 34.96C14.5141 35.47 13.5141 35.72 12.3741 35.72C10.6941 35.72 9.29406 35.16 8.19406 34.04C7.09406 32.92 6.54406 31.51 6.54406 29.79C6.54406 28.07 7.09406 26.62 8.19406 25.5C9.29406 24.38 10.6941 23.82 12.3741 23.82C13.4741 23.82 14.4741 24.08 15.3541 24.6C16.2341 25.12 16.9041 25.83 17.3341 26.73L22.1641 23.9C21.2641 22.19 19.9441 20.82 18.2041 19.81C16.4641 18.79 14.5341 18.29 12.4141 18.29C9.13406 18.29 6.39406 19.39 4.20406 21.6C2.01406 23.81 0.914062 26.54 0.914062 29.79C0.914062 33.04 2.01406 35.77 4.20406 37.98C6.39406 40.19 9.13406 41.29 12.4141 41.29L12.4241 41.3Z" fill="#621FFF"/>
<path d="M74.5341 35.42H64.8641L74.1041 22.65V18.92H57.7941V24.19H66.5441L57.3641 36.95V40.69H74.5341V35.42Z" fill="#621FFF"/>
<path d="M34.1541 40.97H45.4141C51.4841 40.97 56.4141 36.04 56.4141 29.97C56.4141 23.9 51.4841 18.97 45.4141 18.97H34.1541C28.0841 18.97 23.1541 23.9 23.1541 29.97C23.1541 36.04 28.0841 40.97 34.1541 40.97ZM34.1541 24.08H45.4141C48.6641 24.08 51.3041 26.72 51.3041 29.97C51.3041 33.22 48.6641 35.86 45.4141 35.86H34.1541C30.9041 35.86 28.2641 33.22 28.2641 29.97C28.2641 26.72 30.9041 24.08 34.1541 24.08Z" fill="#621FFF"/>
<path d="M94.664 18.7101V19.0801C94.664 23.0101 94.664 26.9301 94.664 30.8601C94.664 31.4801 94.614 32.1001 94.484 32.7101C94.014 34.9201 92.7141 36.4301 90.5741 37.1501C88.9941 37.6801 87.4041 37.5201 85.8641 36.8901C84.9241 36.5101 84.2441 35.8501 83.8241 34.9501C83.6441 34.5601 83.5141 34.1301 83.4041 33.7101C83.2741 33.2301 83.264 32.7201 83.264 32.2201C83.264 27.8401 83.264 23.4501 83.264 19.0701C83.264 18.9401 83.2641 18.8201 83.2541 18.6901H77.9341V19.0301C77.9341 23.8301 77.9341 28.6401 77.9341 33.4401C77.9341 34.3101 78.024 35.1801 78.244 36.0201C78.984 38.8801 80.684 40.9101 83.484 41.9401C85.414 42.6501 87.414 42.7401 89.414 42.2901C91.624 41.8001 93.3741 40.6401 94.4741 38.6201C94.4941 38.5801 94.534 38.5601 94.594 38.4901C94.594 38.6001 94.604 38.6601 94.604 38.7201C94.604 39.8701 94.6241 41.0201 94.604 42.1701C94.594 42.7101 94.544 43.2501 94.444 43.7801C94.024 45.8701 92.794 47.3201 90.814 48.1101C89.744 48.5401 88.6241 48.6401 87.4741 48.5201C85.7941 48.3501 84.384 47.6501 83.194 46.4701C82.454 45.7301 81.9541 44.8301 81.6141 43.8501C81.5741 43.7401 81.534 43.6301 81.484 43.5101C79.774 44.2801 78.0941 45.0401 76.4041 45.8001C76.4641 45.9701 76.514 46.1101 76.564 46.2501C77.574 48.8601 79.284 50.8601 81.784 52.1701C83.1641 52.8801 84.634 53.2801 86.174 53.4701C86.504 53.5101 86.8241 53.5501 87.1541 53.5901H89.0841C89.1841 53.5701 89.274 53.5401 89.374 53.5401C90.584 53.4501 91.7641 53.2301 92.8941 52.8001C96.5541 51.4301 98.924 48.8901 99.884 45.0901C100.174 43.9501 100.264 42.7901 100.274 41.6101C100.274 38.9701 100.274 36.3401 100.274 33.7001V18.6901H94.674L94.664 18.7101Z" fill="#621FFF"/>
<path d="M118.214 24.15H113.074V33.61C113.074 34.4 113.274 34.97 113.664 35.34C114.054 35.7 114.634 35.91 115.394 35.95C116.154 35.99 117.094 35.99 118.214 35.93V41.25C114.184 41.71 111.344 41.33 109.694 40.11C108.044 38.9 107.214 36.73 107.214 33.61V24.15H103.254V18.51H107.214V13.92L113.074 12.15V18.52H118.214V24.16V24.15Z" fill="#621FFF"/>
<path d="M128.574 22.4201C129.124 20.9701 130.024 19.8701 131.284 19.1501C132.544 18.4201 133.944 18.0601 135.494 18.0601V24.6101C133.704 24.4001 132.104 24.7601 130.694 25.7001C129.284 26.6401 128.584 28.2001 128.584 30.3801V41.2501H122.724V18.5201H128.584V22.4301L128.574 22.4201Z" fill="#621FFF"/>
<path d="M141.804 15.7901C140.834 15.7901 139.994 15.4301 139.284 14.7201C138.574 14.0101 138.214 13.1701 138.214 12.2001C138.214 11.2301 138.574 10.3801 139.284 9.65006C139.994 8.92006 140.834 8.56006 141.804 8.56006C142.774 8.56006 143.664 8.92006 144.374 9.65006C145.084 10.3801 145.444 11.2301 145.444 12.2001C145.444 13.1701 145.084 14.0101 144.374 14.7201C143.664 15.4301 142.804 15.7901 141.804 15.7901ZM138.894 41.2501V18.5201H144.754V41.2501H138.894Z" fill="#621FFF"/>
<path d="M163.354 17.88C166.414 17.88 169.024 19.04 171.194 21.36C173.364 23.68 174.444 26.52 174.444 29.88C174.444 33.24 173.364 36.09 171.194 38.4C169.024 40.72 166.414 41.88 163.354 41.88C160.294 41.88 157.714 40.77 155.994 38.56V50.34H150.134V18.52H155.994V21.2C157.724 18.99 160.174 17.88 163.354 17.88ZM157.764 34.49C158.944 35.69 160.444 36.29 162.264 36.29C164.084 36.29 165.594 35.69 166.784 34.49C167.974 33.29 168.584 31.76 168.584 29.88C168.584 28 167.984 26.46 166.784 25.27C165.584 24.08 164.074 23.47 162.264 23.47C160.454 23.47 158.944 24.07 157.764 25.27C156.584 26.47 155.994 28.01 155.994 29.88C155.994 31.75 156.584 33.3 157.764 34.49Z" fill="#621FFF"/>
<path d="M63.7541 7.02C63.7841 7.13 63.7841 7.27 63.8541 7.35C65.0741 8.91 64.5541 8.92 63.5341 9.96C61.5541 11.99 59.5641 14.02 57.5441 16.02C56.4041 17.14 54.8941 16.87 54.2541 15.49C53.9141 14.75 53.9841 14.01 54.5541 13.43C56.8341 11.07 59.1541 8.74 61.4441 6.4C61.8741 5.96 62.2941 6.14 62.7241 6.39C63.0241 6.56 63.3241 6.74 63.6241 6.91C63.6641 6.95 63.7041 6.99 63.7541 7.03V7.02Z" fill="#621FFF"/>
<path d="M51.0841 12.38C50.2741 13.04 49.4541 13.14 48.4641 12.65C47.8241 12.33 47.3741 11.44 47.5741 10.62C48.3641 7.44003 49.2041 4.28003 50.0241 1.11003C50.1741 0.540031 50.5441 0.360031 51.0841 0.420031C51.4641 0.460031 51.8441 0.520031 52.2141 0.610031C53.9341 1.04003 54.1341 1.38003 53.6941 3.07003C53.0141 5.70003 52.3541 8.33003 51.6641 10.95C51.5341 11.45 51.2841 11.91 51.0841 12.39V12.38Z" fill="#621FFF"/>
<path d="M40.5641 12.4C40.3841 12.04 40.1441 11.7 40.0341 11.31C39.2141 8.42004 38.4141 5.52004 37.6341 2.62004C37.3641 1.61004 37.5141 1.33004 38.4841 0.920038C38.7041 0.830038 38.9241 0.740038 39.1441 0.680038C40.9041 0.180038 41.2041 0.350038 41.6841 2.10004C42.4241 4.80004 43.1741 7.50004 43.9241 10.19C44.1441 10.98 44.1241 11.7 43.5041 12.33C42.6141 13.24 41.5241 13.26 40.5541 12.4H40.5641Z" fill="#621FFF"/>
</svg>
