<svg width="28" height="29" viewBox="0 0 28 29" fill="none" xmlns="http://www.w3.org/2000/svg">
<path fill-rule="evenodd" clip-rule="evenodd" d="M22.8434 19.8446L23.1234 21.1746C23.3887 22.3244 23.1267 23.5327 22.409 24.4694C21.6912 25.4061 20.5927 25.9733 19.4134 26.0162H8.5867C7.4074 25.9733 6.30886 25.4061 5.5911 24.4694C4.87334 23.5327 4.61136 22.3244 4.8767 21.1746L5.1567 19.8446C5.47874 18.0441 7.02642 16.721 8.85503 16.6829H19.145C20.9736 16.721 22.5213 18.0441 22.8434 19.8446ZM19.4134 24.2546C20.0058 24.2477 20.5633 23.9732 20.93 23.5079V23.5196C21.38 22.9551 21.5553 22.2196 21.4084 21.5129L21.1284 20.1829C20.973 19.1973 20.1421 18.4592 19.145 18.4212H8.85503C7.85796 18.4592 7.02706 19.1973 6.8717 20.1829L6.5917 21.5129C6.44838 22.2159 6.62351 22.9463 7.07003 23.5079C7.43676 23.9732 7.99428 24.2477 8.5867 24.2546H19.4134Z" fill="currentColor"/>
<path fill-rule="evenodd" clip-rule="evenodd" d="M14.5833 14.3495H13.4167C10.8393 14.3495 8.75001 12.2602 8.75001 9.68288V6.60288C8.7469 5.56228 9.1589 4.5634 9.89472 3.82759C10.6305 3.09177 11.6294 2.67977 12.67 2.68288H15.33C16.3706 2.67977 17.3695 3.09177 18.1053 3.82759C18.8411 4.5634 19.2531 5.56228 19.25 6.60288V9.68288C19.25 12.2602 17.1607 14.3495 14.5833 14.3495ZM12.67 4.43288C11.4716 4.43288 10.5 5.40442 10.5 6.60288V9.68288C10.5 11.2937 11.8058 12.5995 13.4167 12.5995H14.5833C16.1942 12.5995 17.5 11.2937 17.5 9.68288V6.60288C17.5 6.02736 17.2714 5.47541 16.8644 5.06846C16.4575 4.6615 15.9055 4.43288 15.33 4.43288H12.67Z" fill="currentColor"/>
</svg>
