<svg width="21" height="20" viewBox="0 0 21 20" fill="none" xmlns="http://www.w3.org/2000/svg">
<path d="M4.76147 6.66669H6.84481" stroke="#0E131F" stroke-width="1.5" stroke-linecap="round" stroke-linejoin="round"/>
<path d="M11.4282 6.66669H16.8449" stroke="#0E131F" stroke-width="1.5" stroke-linecap="round" stroke-linejoin="round"/>
<path d="M4.76147 13.3333H11.0115" stroke="#0E131F" stroke-width="1.5" stroke-linecap="round" stroke-linejoin="round"/>
<path d="M15.595 13.3333H16.845" stroke="#0E131F" stroke-width="1.5" stroke-linecap="round" stroke-linejoin="round"/>
<path d="M11.0115 6.66669C11.0115 7.70222 10.172 8.54169 9.13647 8.54169C8.10094 8.54169 7.26147 7.70222 7.26147 6.66669C7.26147 5.63115 8.10094 4.79169 9.13647 4.79169C10.172 4.79169 11.0115 5.63115 11.0115 6.66669Z" stroke="#0E131F" stroke-width="1.5" stroke-linecap="round" stroke-linejoin="round"/>
<path d="M15.1782 13.3333C15.1782 14.3688 14.3388 15.2083 13.3032 15.2083C12.2677 15.2083 11.4282 14.3688 11.4282 13.3333C11.4282 12.2978 12.2677 11.4583 13.3032 11.4583C14.3388 11.4583 15.1782 12.2978 15.1782 13.3333Z" stroke="#0E131F" stroke-width="1.5" stroke-linecap="round" stroke-linejoin="round"/>
</svg>
